<svg xmlns="http://www.w3.org/2000/svg" width="24" height="24" viewBox="0 0 24 24">
  <path fill="#424242" d="M8 5h10a1 1 0 1 1 0 2H8a1 1 0 1 1 0-2Zm0 5h10a1 1 0 1 1 0 2H8a1 1 0 1 1 0-2Zm0 5h7a1 1 0 1 1 0 2H8a1 1 0 1 1 0-2Zm-3.18-9.64a.75.75 0 0 1 1.06 0l.77.77 1.76-2.11a.75.75 0 1 1 1.15.96l-2.28 2.74a.75.75 0 0 1-1.11.06L4.82 6.42a.75.75 0 0 1 0-1.06Zm0 5a.75.75 0 0 1 1.06 0l.77.77 1.76-2.11a.75.75 0 1 1 1.15.96l-2.28 2.74a.75.75 0 0 1-1.11.06l-1.41-1.41a.75.75 0 0 1 0-1.06Zm0 5a.75.75 0 0 1 1.06 0l.77.77 1.76-2.11a.75.75 0 1 1 1.15.96l-2.28 2.74a.75.75 0 0 1-1.11.06l-1.41-1.41a.75.75 0 0 1 0-1.06Z"/>
</svg>